<svg width="1589" height="568" viewBox="0 0 1589 568" fill="none" xmlns="http://www.w3.org/2000/svg">
<path fill-rule="evenodd" clip-rule="evenodd" d="M4.33118 305.404C7.19054 312.295 11.3812 318.554 16.6633 323.822L243.538 550.697C254.189 561.348 268.633 567.331 283.695 567.331C298.757 567.331 313.202 561.348 323.852 550.697C334.502 540.047 340.486 525.602 340.486 510.54C340.486 495.479 334.502 481.034 323.852 470.384L193.739 340.384H712.404L524.643 528.145C518.004 534.784 518.004 545.547 524.643 552.186C531.282 558.825 542.046 558.825 548.685 552.186L760.487 340.384H1394.59L1264.48 470.384C1253.83 481.034 1247.84 495.479 1247.84 510.54C1247.84 525.602 1253.83 540.047 1264.48 550.697C1275.13 561.348 1289.57 567.331 1304.63 567.331C1319.69 567.331 1334.14 561.348 1344.79 550.697L1571.66 323.822C1576.95 318.554 1581.14 312.295 1584 305.404C1586.86 298.513 1588.33 291.126 1588.33 283.665C1588.33 276.205 1586.86 268.818 1584 261.927C1581.14 255.036 1576.95 248.777 1571.66 243.509L1344.79 16.6335C1334.14 5.98327 1319.69 0 1304.63 0C1289.57 0 1275.13 5.98327 1264.48 16.6335C1253.83 27.2838 1247.84 41.7287 1247.84 56.7904C1247.84 71.8522 1253.83 86.297 1264.48 96.9473L1394.59 226.947H873.924L1062.68 38.1863C1069.32 31.5474 1069.32 20.7836 1062.68 14.1447C1056.05 7.5058 1045.28 7.5058 1038.64 14.1447L825.841 226.947H193.739L323.852 96.9473C329.125 91.6738 333.309 85.4133 336.163 78.5232C339.017 71.6331 340.486 64.2482 340.486 56.7904C340.486 49.3326 339.017 41.9478 336.163 35.0577C333.309 28.1675 329.125 21.907 323.852 16.6335C318.579 11.3601 312.318 7.1769 305.428 4.32292C298.538 1.46893 291.153 0 283.695 0C276.237 0 268.853 1.46893 261.962 4.32292C255.072 7.1769 248.812 11.3601 243.538 16.6335L16.6633 243.509C11.3812 248.777 7.19054 255.036 4.33118 261.927C1.47183 268.818 0 276.205 0 283.665C0 291.126 1.47183 298.513 4.33118 305.404Z" fill="black"/>
</svg>
