<svg width="81" height="104" viewBox="0 0 81 104" fill="none" xmlns="http://www.w3.org/2000/svg">
<rect width="81" height="104" fill="#34454D"/>
<path d="M19.116 68V59.48H24.66V60.032H19.728V63.416H23.916V63.944H19.728V68H19.116ZM26.241 68V59.48H26.853V67.448H31.941V68H26.241ZM35.8897 59.48H36.4177L40.0177 68H39.3697L38.1817 65.192H34.1137L32.9257 68H32.2657L35.8897 59.48ZM38.0137 64.688L36.1537 60.224L34.2577 64.688H38.0137ZM46.4313 60.032H43.3113V68H42.6993V60.032H39.5793V59.48H46.4313V60.032ZM19.116 82V73.48H21.948C22.844 73.48 23.592 73.672 24.192 74.056C24.792 74.432 25.24 74.944 25.536 75.592C25.84 76.232 25.992 76.944 25.992 77.728C25.992 78.592 25.824 79.344 25.488 79.984C25.16 80.624 24.692 81.12 24.084 81.472C23.484 81.824 22.772 82 21.948 82H19.116ZM25.38 77.728C25.38 77.016 25.244 76.384 24.972 75.832C24.708 75.272 24.32 74.832 23.808 74.512C23.296 74.192 22.676 74.032 21.948 74.032H19.728V81.448H21.948C22.692 81.448 23.32 81.284 23.832 80.956C24.344 80.628 24.728 80.184 24.984 79.624C25.248 79.064 25.38 78.432 25.38 77.728ZM33.3467 81.448V82H27.6707V73.48H33.2387V74.032H28.2827V77.38H32.6147V77.908H28.2827V81.448H33.3467ZM39.8806 74.896C39.3206 74.28 38.5406 73.972 37.5406 73.972C36.7086 73.972 36.1006 74.132 35.7166 74.452C35.3406 74.764 35.1526 75.188 35.1526 75.724C35.1526 76.084 35.2406 76.372 35.4166 76.588C35.5926 76.796 35.8606 76.964 36.2206 77.092C36.5886 77.22 37.0646 77.344 37.6486 77.464C38.2646 77.592 38.7966 77.744 39.2446 77.92C39.6926 78.088 40.0366 78.32 40.2766 78.616C40.5246 78.912 40.6486 79.312 40.6486 79.816C40.6486 80.568 40.3686 81.132 39.8086 81.508C39.2486 81.884 38.5126 82.072 37.6006 82.072C36.2806 82.072 35.1566 81.648 34.2286 80.8L34.5526 80.308C34.9046 80.676 35.3406 80.972 35.8606 81.196C36.3886 81.42 36.9766 81.532 37.6246 81.532C38.3606 81.532 38.9406 81.396 39.3646 81.124C39.7886 80.844 40.0006 80.432 40.0006 79.888C40.0006 79.512 39.9006 79.208 39.7006 78.976C39.5086 78.744 39.2126 78.556 38.8126 78.412C38.4206 78.26 37.9246 78.12 37.3246 77.992C36.7246 77.864 36.2166 77.72 35.8006 77.56C35.3846 77.4 35.0686 77.184 34.8526 76.912C34.6366 76.64 34.5286 76.272 34.5286 75.808C34.5286 75.296 34.6526 74.864 34.9006 74.512C35.1566 74.152 35.5086 73.88 35.9566 73.696C36.4126 73.512 36.9406 73.42 37.5406 73.42C38.0926 73.42 38.5846 73.504 39.0166 73.672C39.4486 73.832 39.8406 74.08 40.1926 74.416L39.8806 74.896ZM42.1902 82V73.48H42.8022V82H42.1902ZM48.4459 82.06C47.8699 82.06 47.3379 81.936 46.8499 81.688C46.3619 81.44 45.9379 81.112 45.5779 80.704C45.2179 80.288 44.9379 79.824 44.7379 79.312C44.5459 78.792 44.4499 78.264 44.4499 77.728C44.4499 77.168 44.5459 76.632 44.7379 76.12C44.9299 75.6 45.2019 75.14 45.5539 74.74C45.9059 74.332 46.3219 74.012 46.8019 73.78C47.2819 73.54 47.8059 73.42 48.3739 73.42C49.2219 73.42 49.9059 73.596 50.4259 73.948C50.9459 74.292 51.3459 74.736 51.6259 75.28L51.1219 75.58C50.8339 75.02 50.4499 74.616 49.9699 74.368C49.4979 74.112 48.9619 73.984 48.3619 73.984C47.8579 73.984 47.4019 74.092 46.9939 74.308C46.5859 74.516 46.2379 74.8 45.9499 75.16C45.6619 75.512 45.4419 75.912 45.2899 76.36C45.1379 76.808 45.0619 77.268 45.0619 77.74C45.0619 78.236 45.1499 78.712 45.3259 79.168C45.5019 79.616 45.7459 80.016 46.0579 80.368C46.3699 80.72 46.7339 80.996 47.1499 81.196C47.5659 81.396 48.0099 81.496 48.4819 81.496C49.0019 81.496 49.4939 81.376 49.9579 81.136C50.4219 80.896 50.8739 80.516 51.3139 79.996V78.352H49.3819V77.86H51.8419V82H51.3139V80.668C50.4899 81.596 49.5339 82.06 48.4459 82.06ZM54.2514 74.62V82H53.6394V73.48H54.1434L60.0834 80.98V73.48H60.6954V82H60.0954L54.2514 74.62Z" fill="white"/>
<path d="M18 33L40 17L62 33" stroke="white"/>
</svg>
